<?xml version="1.0" standalone="no"?>
<!DOCTYPE svg PUBLIC "-//W3C//DTD SVG 20010904//EN"
 "http://www.w3.org/TR/2001/REC-SVG-20010904/DTD/svg10.dtd">
<svg version="1.0" xmlns="http://www.w3.org/2000/svg"
 width="500.000000pt" height="500.000000pt" viewBox="0 0 500.000000 500.000000"
 preserveAspectRatio="xMidYMid meet">

<g transform="translate(0.000000,500.000000) scale(0.100000,-0.100000)"
fill="#000000" stroke="none">
<path d="M0 2500 l0 -2500 2500 0 2500 0 0 2500 0 2500 -2500 0 -2500 0 0
-2500z m2510 882 c0 -44 -12 -68 -164 -316 -90 -147 -168 -272 -173 -277 -5
-5 -107 -8 -241 -7 l-233 3 156 253 c85 140 167 274 182 299 l26 46 -274 -6
c-193 -4 -294 -10 -340 -21 -78 -18 -190 -59 -237 -86 -18 -11 -37 -20 -42
-20 -8 0 -112 130 -134 168 -6 9 144 12 733 12 l741 0 0 -48z m676 6 c-3 -24
-8 -170 -12 -325 l-7 -283 -198 0 -199 0 0 128 c0 132 -15 419 -26 485 l-6 37
227 0 227 0 -6 -42z m-1150 -823 c18 -14 17 -14 -12 -9 -36 7 -57 -13 -52 -48
3 -20 9 -23 41 -22 43 1 50 -12 10 -22 -45 -12 -81 24 -69 70 4 15 17 31 29
36 30 12 31 12 53 -5z m258 -6 c14 -11 26 -29 26 -40 0 -26 -35 -59 -63 -59
-56 0 -77 82 -27 107 33 17 33 16 64 -8z m269 -10 c9 -12 17 -27 17 -35 0 -26
-39 -54 -75 -54 l-35 0 0 61 0 62 38 -6 c20 -4 45 -16 55 -28z m247 21 c0 -5
-13 -10 -30 -10 -20 0 -30 -5 -30 -15 0 -9 9 -15 24 -15 14 0 28 -4 31 -10 4
-6 -7 -10 -24 -10 -21 0 -31 -5 -31 -15 0 -10 10 -15 30 -15 17 0 30 -4 30
-10 0 -5 -18 -10 -40 -10 l-40 0 0 60 0 60 40 0 c22 0 40 -4 40 -10z m231 0
c6 0 7 -5 4 -10 -3 -6 -17 -7 -31 -4 -36 9 -31 -19 7 -33 52 -20 21 -73 -34
-59 -40 10 -33 26 8 19 44 -7 48 14 5 28 -19 7 -30 18 -30 29 0 22 28 42 48
35 8 -3 18 -5 23 -5z m-1201 -326 c0 -3 -88 -149 -195 -324 -107 -175 -195
-321 -195 -324 0 -10 538 -6 638 5 114 12 272 49 390 91 46 16 85 28 87 26 2
-2 -15 -42 -37 -91 l-41 -87 -748 0 -749 0 0 44 c0 41 18 75 191 355 l190 311
235 0 c129 0 234 -3 234 -6z m1330 -325 l0 -332 208 6 c233 7 326 22 527 87
65 22 121 38 123 36 1 -2 -16 -42 -40 -90 l-42 -86 -605 0 -604 0 7 58 c14
125 26 355 26 500 l0 152 200 0 200 0 0 -331z"/>
<path d="M2230 2546 c-19 -23 -8 -61 18 -64 44 -7 67 32 36 62 -19 20 -38 20
-54 2z"/>
<path d="M2490 2520 c0 -35 3 -40 23 -40 25 0 47 17 47 36 0 19 -29 44 -51 44
-16 0 -19 -7 -19 -40z"/>
</g>
</svg>
