<?xml version="1.0" standalone="no"?>
<!DOCTYPE svg PUBLIC "-//W3C//DTD SVG 20010904//EN"
 "http://www.w3.org/TR/2001/REC-SVG-20010904/DTD/svg10.dtd">
<svg version="1.0" xmlns="http://www.w3.org/2000/svg"
 width="500.000000pt" height="500.000000pt" viewBox="0 0 500.000000 500.000000"
 preserveAspectRatio="xMidYMid meet">

<g transform="translate(0.000000,500.000000) scale(0.100000,-0.100000)"
fill="#000000" stroke="none">
<path d="M1037 3417 c16 -25 126 -167 129 -167 3 0 37 16 76 36 39 20 115 48
167 62 89 23 116 25 374 30 152 2 277 1 277 -2 0 -3 -79 -135 -176 -293 -97
-159 -178 -291 -181 -295 -2 -5 102 -8 231 -8 l235 0 170 278 c157 255 171
281 171 325 l0 47 -740 0 c-603 0 -740 -2 -733 -13z"/>
<path d="M2745 3408 c10 -46 25 -318 25 -470 l0 -158 193 0 193 0 13 293 c6
160 15 307 18 325 l5 32 -226 0 -226 0 5 -22z"/>
<path d="M1181 1938 c-169 -277 -191 -318 -191 -355 l0 -43 748 0 748 0 42 91
c32 70 37 89 24 84 -127 -50 -324 -100 -452 -115 -56 -6 -211 -10 -376 -8
l-280 3 198 323 c109 178 198 325 198 328 0 2 -105 4 -234 4 l-233 0 -192
-312z"/>
<path d="M2770 2063 c0 -170 -9 -324 -26 -470 l-6 -53 604 0 605 0 41 87 c22
49 40 89 39 90 -1 1 -54 -16 -117 -37 -198 -66 -288 -81 -532 -87 l-218 -6 0
332 0 331 -195 0 -195 0 0 -187z"/>
</g>
</svg>
