<?xml version="1.0" standalone="no"?>
<!DOCTYPE svg PUBLIC "-//W3C//DTD SVG 20010904//EN"
 "http://www.w3.org/TR/2001/REC-SVG-20010904/DTD/svg10.dtd">
<svg version="1.0" xmlns="http://www.w3.org/2000/svg"
 width="500.000000pt" height="500.000000pt" viewBox="0 0 500.000000 500.000000"
 preserveAspectRatio="xMidYMid meet">

<g transform="translate(0.000000,500.000000) scale(0.100000,-0.100000)"
fill="#000000" stroke="none">
<path d="M1111 3338 c34 -46 64 -85 66 -87 1 -2 38 12 80 31 168 77 236 89
552 95 l263 6 -11 -21 c-6 -12 -102 -169 -212 -349 -111 -180 -203 -331 -206
-335 -2 -5 101 -8 229 -8 l233 1 200 327 c174 285 200 333 203 375 l4 47 -731
0 -732 0 62 -82z"/>
<path d="M2744 3378 c8 -48 25 -459 26 -610 l0 -98 194 0 194 0 5 343 c4 188
9 357 13 375 l6 32 -222 0 -223 0 7 -42z"/>
<path d="M1772 2538 c-37 -46 3 -111 58 -93 30 10 24 22 -9 17 -22 -3 -32 1
-40 16 -20 37 10 69 52 56 13 -4 17 -2 13 5 -10 15 -61 14 -74 -1z"/>
<path d="M2016 2534 c-21 -21 -20 -57 2 -77 51 -46 124 13 87 69 -18 28 -65
32 -89 8z m68 -10 c31 -30 8 -69 -36 -62 -26 3 -37 41 -18 64 16 18 35 18 54
-2z"/>
<path d="M2270 2495 c0 -53 1 -55 28 -55 60 0 94 57 56 94 -8 9 -31 16 -50 16
l-34 0 0 -55z m70 31 c20 -26 8 -61 -22 -64 -27 -3 -28 -1 -28 37 0 33 3 41
19 41 10 0 24 -7 31 -14z"/>
<path d="M2520 2495 l0 -55 40 0 c22 0 40 5 40 10 0 6 -13 10 -30 10 -20 0
-30 5 -30 15 0 10 10 15 31 15 17 0 28 4 24 10 -3 6 -17 10 -31 10 -37 0 -30
28 9 33 28 3 26 4 -10 5 l-43 2 0 -55z"/>
<path d="M2767 2543 c-17 -16 -5 -42 24 -52 38 -13 29 -35 -12 -27 -30 6 -40
-8 -13 -18 26 -10 51 -7 63 8 16 19 4 43 -25 50 -13 4 -24 14 -24 22 0 12 6
15 25 10 14 -4 25 -2 25 4 0 11 -53 14 -63 3z"/>
<path d="M1496 2331 l-69 -6 -209 -340 c-186 -303 -208 -344 -208 -382 l0 -43
738 0 737 0 42 91 c23 50 37 88 30 85 -57 -23 -242 -79 -322 -97 -89 -19 -138
-22 -437 -26 -186 -3 -338 -3 -338 0 0 3 97 165 216 359 119 194 218 356 221
361 5 8 -294 7 -401 -2z"/>
<path d="M2761 2003 c-7 -186 -15 -362 -18 -390 l-5 -53 594 0 594 0 18 38
c11 20 29 60 42 88 l23 51 -122 -39 c-203 -67 -276 -79 -514 -85 l-213 -6 0
367 0 366 -193 0 -193 0 -13 -337z"/>
</g>
</svg>
