<svg version="1.1" id="Layer_1" xmlns="http://www.w3.org/2000/svg" xmlns:xlink="http://www.w3.org/1999/xlink" x="0px" y="0px"
	 width="100%" viewBox="0 0 500 500" enable-background="new 0 0 500 500" xml:space="preserve">
<path fill="#FBFAF9" opacity="1.000000" stroke="none" 
	d="
M242.000000,501.000000 
	C162.666687,501.000000 83.833328,500.971558 5.000208,501.096100 
	C1.575944,501.101501 0.903036,500.423828 0.905301,497.000000 
	C1.013779,333.000092 1.013772,169.000122 0.905334,5.000238 
	C0.903070,1.576918 1.575820,0.903022 4.999885,0.905287 
	C168.999771,1.013774 332.999725,1.013761 496.999634,0.905353 
	C500.422668,0.903090 501.096985,1.575444 501.094727,4.999765 
	C500.986206,168.999649 500.986237,332.999603 501.094604,496.999512 
	C501.096893,500.422272 500.425446,501.100891 497.000275,501.095947 
	C412.166992,500.973480 327.333466,501.000000 242.000000,501.000000 
z"/>
<path fill="#252122" opacity="1.000000" stroke="none" 
	d="
M256.676941,327.795746 
	C255.636993,333.511444 252.307861,338.175140 250.248764,343.387970 
	C249.465515,345.370880 247.967743,344.991699 246.547104,344.992157 
	C199.407349,345.006561 152.267593,345.011230 105.127853,344.987427 
	C102.076088,344.985870 100.630600,340.761597 102.147354,336.176575 
	C102.504059,335.098297 103.287880,334.157837 103.895599,333.166504 
	C114.847778,315.300659 125.859238,297.470642 136.695206,279.534546 
	C138.262161,276.940857 139.914993,275.915955 142.983887,275.954041 
	C156.899200,276.126801 170.817886,276.029663 185.602402,276.029663 
	C172.408585,297.630310 159.651917,318.515259 146.628815,339.836395 
	C184.201508,340.379974 221.247162,342.655182 256.676941,327.795746 
z"/>
<path fill="#292526" opacity="1.000000" stroke="none" 
	d="
M172.675018,220.983582 
	C183.743347,202.930084 194.513168,185.161011 205.504410,167.529984 
	C207.743332,163.938507 207.102036,163.184128 203.124908,163.298477 
	C185.840149,163.795395 168.494583,162.243607 151.274109,164.901749 
	C141.154465,166.463791 131.554459,169.589325 122.721100,174.783890 
	C120.073738,176.340714 118.564003,176.356705 116.702950,173.582886 
	C113.398331,168.657516 109.616829,164.052078 105.959061,159.212540 
	C108.021568,157.933090 109.883873,158.492661 111.630821,158.491150 
	C156.082809,158.452667 200.534851,158.439621 244.986710,158.520432 
	C247.330383,158.524689 250.981995,157.059433 251.812042,159.472992 
	C252.860458,162.521545 252.930222,166.253998 250.861023,169.549164 
	C245.115570,178.698715 239.549561,187.960968 233.911942,197.178253 
	C229.228745,204.835098 224.509796,212.470474 219.885956,220.163025 
	C218.779312,222.004150 217.633896,223.066360 215.220581,223.042786 
	C201.736435,222.910965 188.250198,223.002213 174.765167,222.926682 
	C173.888519,222.921799 171.651352,224.057251 172.675018,220.983582 
z"/>
<path fill="#272324" opacity="1.000000" stroke="none" 
	d="
M316.530090,331.985474 
	C316.531219,340.066742 316.531219,340.066711 324.058899,340.066772 
	C360.911743,340.067108 364.081299,339.544739 402.174286,327.033264 
	C399.314117,333.051880 396.728760,338.441467 394.194550,343.855011 
	C393.410858,345.529144 391.949280,344.985352 390.726837,344.986237 
	C353.094452,345.013550 315.462067,345.000427 277.829681,345.029236 
	C275.598175,345.030945 274.217865,345.082031 274.649384,341.891327 
	C277.401489,321.542511 277.503448,301.054657 277.174286,280.573944 
	C277.112915,276.755524 278.196442,275.832916 281.901489,275.932892 
	C291.885132,276.202332 301.885315,276.196228 311.869385,275.935150 
	C315.523926,275.839600 316.679840,276.677063 316.628174,280.535431 
	C316.400848,297.516968 316.530121,314.503265 316.530090,331.985474 
z"/>
<path fill="#282425" opacity="1.000000" stroke="none" 
	d="
M277.256165,206.995682 
	C277.281189,191.834091 276.940125,177.183914 275.081543,162.621857 
	C274.660461,159.322632 275.560120,158.337326 278.943115,158.390991 
	C291.098236,158.583893 303.259033,158.538666 315.415924,158.413086 
	C318.218323,158.384140 319.217072,159.046951 318.838593,162.040024 
	C316.471649,180.756821 316.426392,199.584732 316.623535,218.402771 
	C316.662750,222.142517 315.707855,223.181412 311.933075,223.074707 
	C301.781616,222.787781 291.614624,222.861267 281.458374,223.045258 
	C278.313019,223.102234 276.922852,222.434341 277.195038,218.981171 
	C277.495117,215.174332 277.259918,211.325302 277.256165,206.995682 
z"/>
<path fill="#444041" opacity="1.000000" stroke="none" 
	d="
M269.503540,251.308685 
	C267.196198,252.557053 267.100281,253.551346 269.482086,254.097473 
	C270.867859,254.415207 272.468048,253.600037 274.052338,255.209518 
	C271.336761,256.643188 267.497650,257.008911 266.406036,255.564056 
	C264.497284,253.037674 264.877502,248.762405 266.032104,246.012970 
	C267.192169,243.250565 270.862885,245.210114 273.588074,245.042572 
	C273.401031,245.722672 273.415161,246.105621 273.233795,246.262558 
	C271.707855,247.582611 268.389221,245.424500 268.121094,247.832260 
	C267.778717,250.906387 271.896179,248.254440 272.960999,250.304871 
	C272.307190,251.921005 270.939880,251.005951 269.503540,251.308685 
z"/>
<path fill="#444041" opacity="1.000000" stroke="none" 
	d="
M214.311554,249.403168 
	C215.245071,246.646164 216.790237,245.102020 219.430756,244.865997 
	C222.676453,244.575897 225.059784,245.897812 225.921890,249.029480 
	C226.725906,251.950211 225.494919,254.382523 222.711014,255.571854 
	C219.819580,256.807068 217.118607,256.194397 215.204117,253.537567 
	C214.430679,252.464172 214.001694,251.163544 214.311554,249.403168 
z"/>
<path fill="#444041" opacity="1.000000" stroke="none" 
	d="
M295.964722,251.008698 
	C297.366150,253.432709 296.420288,254.973999 294.498688,255.680054 
	C292.087646,256.565948 289.751007,256.255371 287.948700,253.956924 
	C288.479828,253.562042 288.747192,253.197418 288.974182,253.221008 
	C290.657623,253.395859 292.982697,255.311279 293.835266,253.295380 
	C294.712646,251.220749 291.759766,251.399033 290.471802,250.642746 
	C288.511292,249.491562 287.798767,247.755844 289.300690,246.146896 
	C291.369843,243.930252 293.798737,244.604172 296.520844,245.925873 
	C294.671173,248.130508 292.452881,245.660614 291.064758,247.746826 
	C291.885925,249.759155 294.402039,249.401825 295.964722,251.008698 
z"/>
<path fill="#4C4949" opacity="1.000000" stroke="none" 
	d="
M198.288177,255.709229 
	C194.652466,256.554138 192.051987,255.764694 190.628555,252.468155 
	C189.562683,249.999710 190.301392,247.877197 192.187164,246.240524 
	C194.355530,244.358582 196.738739,244.216476 199.090317,245.725403 
	C198.998581,247.487350 198.103699,247.059448 197.341599,246.929550 
	C194.300995,246.411240 192.259232,247.641220 192.467224,250.756104 
	C192.656860,253.596283 194.817154,254.435959 197.533417,253.914459 
	C198.300140,253.767242 199.385483,252.530624 199.806122,254.228668 
	C199.885681,254.549820 199.053955,255.096725 198.288177,255.709229 
z"/>
<path fill="#4C4949" opacity="1.000000" stroke="none" 
	d="
M248.020615,254.723267 
	C245.762131,256.650970 242.027771,257.091370 241.181641,255.238144 
	C239.943359,252.525955 239.939301,248.510849 241.054291,245.704651 
	C241.900543,243.574799 245.420532,244.878510 248.000854,245.562286 
	C248.128479,246.321625 247.936066,246.746353 247.360428,247.337555 
	C244.324463,249.058685 242.945465,250.735245 246.692917,253.200653 
	C247.369293,253.646332 247.678589,253.987473 248.020615,254.723267 
z"/>
<path fill="#292526" opacity="1.000000" stroke="none" 
	d="
M248.453369,254.958008 
	C247.827805,254.883011 247.544891,254.701309 247.140793,254.298462 
	C247.344147,251.894531 247.853027,249.712265 247.035614,247.189789 
	C247.276398,246.605423 247.518845,246.357697 247.992035,245.980164 
	C252.208984,248.608963 251.859818,251.643677 248.453369,254.958008 
z"/>
<path fill="#252122" opacity="1.000000" stroke="none" 
	d="
M257.065430,328.041992 
	C256.688904,327.789246 256.688507,327.480713 257.152679,327.370331 
	C257.652527,327.251465 257.766113,327.503632 257.207031,327.941711 
	C256.972595,327.975464 257.032684,328.022430 257.065430,328.041992 
z"/>
<path fill="#F0EFEE" opacity="1.000000" stroke="none" 
	d="
M222.400604,253.560165 
	C219.780045,254.549988 217.853622,254.298676 216.644958,251.905975 
	C215.849915,250.332092 216.374283,249.007935 217.428650,247.846664 
	C218.546249,246.615768 220.081802,246.314514 221.502930,246.977341 
	C224.692505,248.464920 224.799240,250.727081 222.400604,253.560165 
z"/>
<path fill="#F0EFEE" opacity="1.000000" stroke="none" 
	d="
M246.577774,246.844452 
	C249.624252,248.917068 249.895813,251.174484 247.310181,253.861694 
	C244.748489,254.158386 242.324738,254.674500 242.708878,250.890335 
	C242.943954,248.574661 242.402817,246.041367 246.577774,246.844452 
z"/>
</svg>